<svg viewBox="0 0 384 384">
<g style="stroke:none;stroke-opacity:1;">
		<path
   d="M 303.87109,28.027344 L 354.23828,80.183105 C 339.74805,97.525391 331,119.88574 331,144.27588 C 331,165.11914 337.40527,184.53857 348.34766,200.58008 C 357.56543,214.06836 363,230.43164 363,248 C 363,294.22949 325.65625,331.73633 279.49023,331.99902 C 247.12109,332.02148 217.1582,341.61621 192,358.06055 C 166.81104,341.5957 136.80469,331.99805 104.39014,331.99805 C 58.279785,331.67285 21,294.19043 21,248 C 21,230.43262 26.434082,214.06836 35.652344,200.58008 C 46.594238,184.53857 53,165.11914 53,144.27588 C 53,119.88525 44.251953,97.525391 29.761231,80.183106 L 80.12793,28.027344 C 96.056152,37.936523 114.87451,43.669922 135,43.669922 C 156.02832,43.669922 175.62988,37.411133 192,26.669922 C 208.36914,37.411133 227.97168,43.669922 249,43.669922 C 269.125,43.669922 287.94336,37.936523 303.87109,28.027344 z M 249,31.669922 C 270.25488,31.669922 289.83789,24.452149 305.41211,12.347656 L 370.81445,80.074219 C 353.70605,96.120117 343,118.94775 343,144.27588 C 343,162.63037 348.63086,179.70117 358.25781,193.81348 C 368.78906,209.22266 375,227.92773 375,248 C 375,300.83398 332.32031,343.69922 279.55859,343.99805 C 246.71582,344.00977 216.57617,354.6543 192,372.65039 C 167.41064,354.64551 137.25244,343.99805 104.39014,343.99805 C 51.651367,343.67188 9,300.81641 9,248 C 9,227.92773 15.210938,209.22266 25.742188,193.81348 C 35.368164,179.70117 41,162.63037 41,144.27588 C 41,118.94775 30.293457,96.120117 13.18457,80.074219 L 78.587891,12.347656 C 94.162598,24.452148 113.74463,31.669922 135,31.669922 C 156.52197,31.669922 176.33105,24.270996 192,11.889649 C 207.66992,24.270996 227.47754,31.669922 249,31.669922 z "
   style="fill-rule:evenodd;stroke:none;stroke-opacity:1;fill:white"/>
	</g>

<text
   xml:space="preserve"
   style="font-size:35.65853882px;font-style:normal;font-variant:normal;font-weight:bold;font-stretch:normal;line-height:125%;letter-spacing:0px;word-spacing:0px;;fill-opacity:1;stroke:none;font-family:Calibri;-inkscape-font-specification:Calibri Bold;fill:white"
   x="150.70016"
   y="95.172394"><tspan
     x="150.70016"
     y="95.172394"
     style="font-size:57.05366898px;font-style:normal;font-variant:normal;font-weight:bold;font-stretch:normal;;font-family:Arial;-inkscape-font-specification:Arial Bold">km</tspan></text>


<text
   xml:space="preserve"
   style="font-size:63.8635788px;font-style:normal;font-weight:normal;line-height:125%;letter-spacing:0px;word-spacing:0px;fill-opacity:1;stroke:none;font-family:Sans;fill:white"
   x="65.586052"
   y="303.17123"><tspan
     x="65.586052"
     y="303.17123"
     style="font-size:229.90892029px;font-style:normal;font-variant:normal;font-weight:normal;font-stretch:normal;font-family:Arial;-inkscape-font-specification:Arial">C<tspan
   style="font-size:149.44290161px;font-style:normal;font-variant:normal;font-weight:normal;font-stretch:normal;baseline-shift:super;font-family:Arial;-inkscape-font-specification:Arial"/></tspan></text>


<text
   xml:space="preserve"
   style="font-size:150px;font-style:normal;font-variant:normal;font-weight:normal;font-stretch:normal;line-height:125%;letter-spacing:0px;word-spacing:0px;fill-opacity:1;stroke:none;font-family:Arial;-inkscape-font-specification:Arial;fill:white"
   x="231.7337"
   y="211.17223"><tspan
     x="231.7337"
     y="211.17223">2</tspan></text>
</svg>